<mxfile host="Electron" modified="2024-06-17T09:48:01.594Z" agent="Mozilla/5.0 (Windows NT 10.0; Win64; x64) AppleWebKit/537.36 (KHTML, like Gecko) draw.io/21.4.0 Chrome/112.0.5615.204 Electron/24.5.1 Safari/537.36" etag="qw4C2YF4AiL5bv6zwpx0" version="21.4.0" type="device" pages="3">
  <diagram name="第 1 页" id="ZzjnUPGKGO_t142nM1iD">
    <mxGraphModel dx="1548" dy="902" grid="1" gridSize="10" guides="1" tooltips="1" connect="1" arrows="1" fold="1" page="1" pageScale="1" pageWidth="827" pageHeight="1169" math="0" shadow="0">
      <root>
        <mxCell id="0" />
        <mxCell id="1" parent="0" />
        <mxCell id="LdR6KkOOkv0JIpYGeGJk-9" style="edgeStyle=orthogonalEdgeStyle;rounded=0;hachureGap=4;orthogonalLoop=1;jettySize=auto;html=1;exitX=0;exitY=0.5;exitDx=0;exitDy=0;entryX=0.5;entryY=0;entryDx=0;entryDy=0;fontFamily=Architects Daughter;fontSource=https%3A%2F%2Ffonts.googleapis.com%2Fcss%3Ffamily%3DArchitects%2BDaughter;fontSize=16;" parent="1" source="LdR6KkOOkv0JIpYGeGJk-3" target="LdR6KkOOkv0JIpYGeGJk-5" edge="1">
          <mxGeometry relative="1" as="geometry" />
        </mxCell>
        <mxCell id="LdR6KkOOkv0JIpYGeGJk-20" value="写入数据" style="edgeLabel;html=1;align=center;verticalAlign=middle;resizable=0;points=[];fontSize=20;fontFamily=Architects Daughter;" parent="LdR6KkOOkv0JIpYGeGJk-9" vertex="1" connectable="0">
          <mxGeometry x="0.0827" y="-1" relative="1" as="geometry">
            <mxPoint as="offset" />
          </mxGeometry>
        </mxCell>
        <mxCell id="LdR6KkOOkv0JIpYGeGJk-10" style="edgeStyle=orthogonalEdgeStyle;rounded=0;hachureGap=4;orthogonalLoop=1;jettySize=auto;html=1;exitX=1;exitY=0.5;exitDx=0;exitDy=0;entryX=0.5;entryY=0;entryDx=0;entryDy=0;fontFamily=Architects Daughter;fontSource=https%3A%2F%2Ffonts.googleapis.com%2Fcss%3Ffamily%3DArchitects%2BDaughter;fontSize=16;" parent="1" source="LdR6KkOOkv0JIpYGeGJk-3" target="LdR6KkOOkv0JIpYGeGJk-6" edge="1">
          <mxGeometry relative="1" as="geometry" />
        </mxCell>
        <mxCell id="LdR6KkOOkv0JIpYGeGJk-11" style="edgeStyle=orthogonalEdgeStyle;rounded=0;hachureGap=4;orthogonalLoop=1;jettySize=auto;html=1;exitX=1;exitY=0.5;exitDx=0;exitDy=0;entryX=1;entryY=0.5;entryDx=0;entryDy=0;fontFamily=Architects Daughter;fontSource=https%3A%2F%2Ffonts.googleapis.com%2Fcss%3Ffamily%3DArchitects%2BDaughter;fontSize=16;" parent="1" source="LdR6KkOOkv0JIpYGeGJk-3" target="LdR6KkOOkv0JIpYGeGJk-7" edge="1">
          <mxGeometry relative="1" as="geometry" />
        </mxCell>
        <mxCell id="LdR6KkOOkv0JIpYGeGJk-12" style="edgeStyle=orthogonalEdgeStyle;rounded=0;hachureGap=4;orthogonalLoop=1;jettySize=auto;html=1;exitX=1;exitY=0.5;exitDx=0;exitDy=0;entryX=1;entryY=0.5;entryDx=0;entryDy=0;fontFamily=Architects Daughter;fontSource=https%3A%2F%2Ffonts.googleapis.com%2Fcss%3Ffamily%3DArchitects%2BDaughter;fontSize=16;" parent="1" source="LdR6KkOOkv0JIpYGeGJk-3" target="LdR6KkOOkv0JIpYGeGJk-8" edge="1">
          <mxGeometry relative="1" as="geometry">
            <Array as="points">
              <mxPoint x="590" y="429" />
              <mxPoint x="590" y="765" />
            </Array>
          </mxGeometry>
        </mxCell>
        <mxCell id="LdR6KkOOkv0JIpYGeGJk-3" value="" style="rounded=0;whiteSpace=wrap;html=1;hachureGap=4;fontFamily=Architects Daughter;fontSource=https%3A%2F%2Ffonts.googleapis.com%2Fcss%3Ffamily%3DArchitects%2BDaughter;fontSize=20;dashed=1;" parent="1" vertex="1">
          <mxGeometry x="230" y="374" width="220" height="110" as="geometry" />
        </mxCell>
        <mxCell id="LdR6KkOOkv0JIpYGeGJk-1" value="" style="outlineConnect=0;fontColor=#232F3E;gradientColor=none;fillColor=#232F3D;strokeColor=none;dashed=0;verticalLabelPosition=bottom;verticalAlign=top;align=center;html=1;fontSize=12;fontStyle=0;aspect=fixed;pointerEvents=1;shape=mxgraph.aws4.traditional_server;hachureGap=4;fontFamily=Architects Daughter;fontSource=https%3A%2F%2Ffonts.googleapis.com%2Fcss%3Ffamily%3DArchitects%2BDaughter;" parent="1" vertex="1">
          <mxGeometry x="280" y="390" width="45" height="78" as="geometry" />
        </mxCell>
        <mxCell id="LdR6KkOOkv0JIpYGeGJk-2" value="" style="outlineConnect=0;fontColor=#232F3E;gradientColor=none;fillColor=#232F3D;strokeColor=none;dashed=0;verticalLabelPosition=bottom;verticalAlign=top;align=center;html=1;fontSize=12;fontStyle=0;aspect=fixed;pointerEvents=1;shape=mxgraph.aws4.traditional_server;hachureGap=4;fontFamily=Architects Daughter;fontSource=https%3A%2F%2Ffonts.googleapis.com%2Fcss%3Ffamily%3DArchitects%2BDaughter;" parent="1" vertex="1">
          <mxGeometry x="350" y="390" width="45" height="78" as="geometry" />
        </mxCell>
        <mxCell id="LdR6KkOOkv0JIpYGeGJk-5" value="" style="image;aspect=fixed;perimeter=ellipsePerimeter;html=1;align=center;shadow=0;dashed=0;spacingTop=3;image=img/lib/active_directory/databases.svg;hachureGap=4;fontFamily=Architects Daughter;fontSource=https%3A%2F%2Ffonts.googleapis.com%2Fcss%3Ffamily%3DArchitects%2BDaughter;fontSize=20;" parent="1" vertex="1">
          <mxGeometry x="150" y="640" width="50" height="49" as="geometry" />
        </mxCell>
        <mxCell id="LdR6KkOOkv0JIpYGeGJk-13" style="edgeStyle=orthogonalEdgeStyle;rounded=0;hachureGap=4;orthogonalLoop=1;jettySize=auto;html=1;exitX=0;exitY=0.5;exitDx=0;exitDy=0;entryX=1;entryY=0.5;entryDx=0;entryDy=0;fontFamily=Architects Daughter;fontSource=https%3A%2F%2Ffonts.googleapis.com%2Fcss%3Ffamily%3DArchitects%2BDaughter;fontSize=16;" parent="1" source="LdR6KkOOkv0JIpYGeGJk-6" target="LdR6KkOOkv0JIpYGeGJk-5" edge="1">
          <mxGeometry relative="1" as="geometry" />
        </mxCell>
        <mxCell id="LdR6KkOOkv0JIpYGeGJk-16" value="DB 复制" style="edgeLabel;html=1;align=center;verticalAlign=middle;resizable=0;points=[];fontSize=20;fontFamily=Architects Daughter;" parent="LdR6KkOOkv0JIpYGeGJk-13" vertex="1" connectable="0">
          <mxGeometry x="-0.6738" relative="1" as="geometry">
            <mxPoint as="offset" />
          </mxGeometry>
        </mxCell>
        <mxCell id="LdR6KkOOkv0JIpYGeGJk-6" value="" style="image;aspect=fixed;perimeter=ellipsePerimeter;html=1;align=center;shadow=0;dashed=0;spacingTop=3;image=img/lib/active_directory/databases.svg;hachureGap=4;fontFamily=Architects Daughter;fontSource=https%3A%2F%2Ffonts.googleapis.com%2Fcss%3Ffamily%3DArchitects%2BDaughter;fontSize=20;" parent="1" vertex="1">
          <mxGeometry x="470" y="585" width="50" height="49" as="geometry" />
        </mxCell>
        <mxCell id="LdR6KkOOkv0JIpYGeGJk-14" style="edgeStyle=orthogonalEdgeStyle;rounded=0;hachureGap=4;orthogonalLoop=1;jettySize=auto;html=1;exitX=0;exitY=0.5;exitDx=0;exitDy=0;fontFamily=Architects Daughter;fontSource=https%3A%2F%2Ffonts.googleapis.com%2Fcss%3Ffamily%3DArchitects%2BDaughter;fontSize=16;" parent="1" source="LdR6KkOOkv0JIpYGeGJk-7" edge="1">
          <mxGeometry relative="1" as="geometry">
            <mxPoint x="200" y="670" as="targetPoint" />
          </mxGeometry>
        </mxCell>
        <mxCell id="LdR6KkOOkv0JIpYGeGJk-17" value="DB 复制" style="edgeLabel;html=1;align=center;verticalAlign=middle;resizable=0;points=[];fontSize=20;fontFamily=Architects Daughter;" parent="LdR6KkOOkv0JIpYGeGJk-14" vertex="1" connectable="0">
          <mxGeometry x="-0.561" y="-1" relative="1" as="geometry">
            <mxPoint as="offset" />
          </mxGeometry>
        </mxCell>
        <mxCell id="LdR6KkOOkv0JIpYGeGJk-7" value="" style="image;aspect=fixed;perimeter=ellipsePerimeter;html=1;align=center;shadow=0;dashed=0;spacingTop=3;image=img/lib/active_directory/databases.svg;hachureGap=4;fontFamily=Architects Daughter;fontSource=https%3A%2F%2Ffonts.googleapis.com%2Fcss%3Ffamily%3DArchitects%2BDaughter;fontSize=20;" parent="1" vertex="1">
          <mxGeometry x="470" y="663" width="50" height="49" as="geometry" />
        </mxCell>
        <mxCell id="LdR6KkOOkv0JIpYGeGJk-15" style="edgeStyle=orthogonalEdgeStyle;rounded=0;hachureGap=4;orthogonalLoop=1;jettySize=auto;html=1;exitX=0;exitY=0.5;exitDx=0;exitDy=0;entryX=1;entryY=0.5;entryDx=0;entryDy=0;fontFamily=Architects Daughter;fontSource=https%3A%2F%2Ffonts.googleapis.com%2Fcss%3Ffamily%3DArchitects%2BDaughter;fontSize=16;" parent="1" source="LdR6KkOOkv0JIpYGeGJk-8" target="LdR6KkOOkv0JIpYGeGJk-5" edge="1">
          <mxGeometry relative="1" as="geometry" />
        </mxCell>
        <mxCell id="LdR6KkOOkv0JIpYGeGJk-8" value="" style="image;aspect=fixed;perimeter=ellipsePerimeter;html=1;align=center;shadow=0;dashed=0;spacingTop=3;image=img/lib/active_directory/databases.svg;hachureGap=4;fontFamily=Architects Daughter;fontSource=https%3A%2F%2Ffonts.googleapis.com%2Fcss%3Ffamily%3DArchitects%2BDaughter;fontSize=20;" parent="1" vertex="1">
          <mxGeometry x="470" y="740" width="50" height="49" as="geometry" />
        </mxCell>
        <mxCell id="LdR6KkOOkv0JIpYGeGJk-19" value="DB 复制" style="edgeLabel;html=1;align=center;verticalAlign=middle;resizable=0;points=[];fontSize=20;fontFamily=Architects Daughter;" parent="1" vertex="1" connectable="0">
          <mxGeometry x="420" y="730" as="geometry">
            <mxPoint x="-18" y="38" as="offset" />
          </mxGeometry>
        </mxCell>
        <mxCell id="LdR6KkOOkv0JIpYGeGJk-21" value="查询数据" style="edgeLabel;html=1;align=center;verticalAlign=middle;resizable=0;points=[];fontSize=20;fontFamily=Architects Daughter;" parent="1" vertex="1" connectable="0">
          <mxGeometry x="530" y="420" as="geometry">
            <mxPoint x="-1" y="8" as="offset" />
          </mxGeometry>
        </mxCell>
        <mxCell id="LdR6KkOOkv0JIpYGeGJk-23" value="Web Server" style="text;html=1;strokeColor=none;fillColor=none;align=center;verticalAlign=middle;whiteSpace=wrap;rounded=0;fontSize=20;fontFamily=Architects Daughter;" parent="1" vertex="1">
          <mxGeometry x="260" y="321" width="160" height="30" as="geometry" />
        </mxCell>
        <mxCell id="LdR6KkOOkv0JIpYGeGJk-24" value="主库" style="text;html=1;strokeColor=none;fillColor=none;align=center;verticalAlign=middle;whiteSpace=wrap;rounded=0;fontSize=20;fontFamily=Architects Daughter;" parent="1" vertex="1">
          <mxGeometry x="94" y="699" width="160" height="30" as="geometry" />
        </mxCell>
        <mxCell id="LdR6KkOOkv0JIpYGeGJk-25" value="从库" style="text;html=1;strokeColor=none;fillColor=none;align=center;verticalAlign=middle;whiteSpace=wrap;rounded=0;fontSize=20;fontFamily=Architects Daughter;" parent="1" vertex="1">
          <mxGeometry x="415" y="800" width="160" height="30" as="geometry" />
        </mxCell>
        <mxCell id="LdR6KkOOkv0JIpYGeGJk-26" value="从库" style="text;html=1;strokeColor=none;fillColor=none;align=center;verticalAlign=middle;whiteSpace=wrap;rounded=0;fontSize=20;fontFamily=Architects Daughter;" parent="1" vertex="1">
          <mxGeometry x="415" y="712" width="160" height="30" as="geometry" />
        </mxCell>
        <mxCell id="LdR6KkOOkv0JIpYGeGJk-27" value="从库" style="text;html=1;strokeColor=none;fillColor=none;align=center;verticalAlign=middle;whiteSpace=wrap;rounded=0;fontSize=20;fontFamily=Architects Daughter;" parent="1" vertex="1">
          <mxGeometry x="415" y="630" width="160" height="30" as="geometry" />
        </mxCell>
      </root>
    </mxGraphModel>
  </diagram>
  <diagram id="UbfwAiaY_f9dgE_N_XNn" name="第 2 页">
    <mxGraphModel dx="1548" dy="902" grid="1" gridSize="10" guides="1" tooltips="1" connect="1" arrows="1" fold="1" page="1" pageScale="1" pageWidth="827" pageHeight="1169" math="0" shadow="0">
      <root>
        <mxCell id="0" />
        <mxCell id="1" parent="0" />
      </root>
    </mxGraphModel>
  </diagram>
  <diagram id="q5MJeiCoDzqFSg2UALX4" name="并发">
    <mxGraphModel dx="2375" dy="902" grid="1" gridSize="10" guides="1" tooltips="1" connect="1" arrows="1" fold="1" page="1" pageScale="1" pageWidth="827" pageHeight="1169" math="0" shadow="0">
      <root>
        <mxCell id="0" />
        <mxCell id="1" parent="0" />
        <mxCell id="K97ao4fyFDPn6rMdFVWY-4" style="edgeStyle=orthogonalEdgeStyle;orthogonalLoop=1;jettySize=auto;html=1;exitX=1;exitY=0.5;exitDx=0;exitDy=0;entryX=0;entryY=0.5;entryDx=0;entryDy=0;curved=1;" edge="1" parent="1" source="K97ao4fyFDPn6rMdFVWY-1" target="K97ao4fyFDPn6rMdFVWY-3">
          <mxGeometry relative="1" as="geometry" />
        </mxCell>
        <mxCell id="K97ao4fyFDPn6rMdFVWY-5" style="edgeStyle=orthogonalEdgeStyle;orthogonalLoop=1;jettySize=auto;html=1;exitX=1;exitY=0.5;exitDx=0;exitDy=0;curved=1;" edge="1" parent="1" source="K97ao4fyFDPn6rMdFVWY-1" target="K97ao4fyFDPn6rMdFVWY-2">
          <mxGeometry relative="1" as="geometry" />
        </mxCell>
        <mxCell id="K97ao4fyFDPn6rMdFVWY-7" style="edgeStyle=orthogonalEdgeStyle;orthogonalLoop=1;jettySize=auto;html=1;exitX=1;exitY=0.5;exitDx=0;exitDy=0;entryX=0;entryY=0.5;entryDx=0;entryDy=0;curved=1;" edge="1" parent="1" source="K97ao4fyFDPn6rMdFVWY-1" target="K97ao4fyFDPn6rMdFVWY-6">
          <mxGeometry relative="1" as="geometry" />
        </mxCell>
        <mxCell id="K97ao4fyFDPn6rMdFVWY-1" value="订单服务" style="rounded=0;whiteSpace=wrap;html=1;fillColor=#f5f5f5;strokeColor=#666666;fontColor=#333333;" vertex="1" parent="1">
          <mxGeometry x="70" y="450" width="120" height="60" as="geometry" />
        </mxCell>
        <mxCell id="K97ao4fyFDPn6rMdFVWY-2" value="客服服务" style="rounded=0;whiteSpace=wrap;html=1;fillColor=#d5e8d4;strokeColor=#82b366;" vertex="1" parent="1">
          <mxGeometry x="330" y="450" width="120" height="60" as="geometry" />
        </mxCell>
        <mxCell id="K97ao4fyFDPn6rMdFVWY-3" value="商品服务" style="rounded=0;whiteSpace=wrap;html=1;fillColor=#dae8fc;strokeColor=#6c8ebf;" vertex="1" parent="1">
          <mxGeometry x="330" y="330" width="120" height="60" as="geometry" />
        </mxCell>
        <mxCell id="K97ao4fyFDPn6rMdFVWY-6" value="运单服务" style="rounded=0;whiteSpace=wrap;html=1;fillColor=#ffe6cc;strokeColor=#d79b00;" vertex="1" parent="1">
          <mxGeometry x="330" y="585" width="120" height="60" as="geometry" />
        </mxCell>
        <mxCell id="K97ao4fyFDPn6rMdFVWY-12" value="" style="edgeStyle=orthogonalEdgeStyle;rounded=0;orthogonalLoop=1;jettySize=auto;html=1;" edge="1" parent="1" source="K97ao4fyFDPn6rMdFVWY-8" target="K97ao4fyFDPn6rMdFVWY-9">
          <mxGeometry relative="1" as="geometry" />
        </mxCell>
        <mxCell id="K97ao4fyFDPn6rMdFVWY-8" value="订单服务" style="rounded=0;whiteSpace=wrap;html=1;fillColor=#f5f5f5;strokeColor=#666666;fontColor=#333333;" vertex="1" parent="1">
          <mxGeometry x="-710" y="450" width="120" height="60" as="geometry" />
        </mxCell>
        <mxCell id="K97ao4fyFDPn6rMdFVWY-13" value="" style="edgeStyle=orthogonalEdgeStyle;rounded=0;orthogonalLoop=1;jettySize=auto;html=1;" edge="1" parent="1" source="K97ao4fyFDPn6rMdFVWY-9" target="K97ao4fyFDPn6rMdFVWY-10">
          <mxGeometry relative="1" as="geometry" />
        </mxCell>
        <mxCell id="K97ao4fyFDPn6rMdFVWY-9" value="商品服务" style="rounded=0;whiteSpace=wrap;html=1;fillColor=#dae8fc;strokeColor=#6c8ebf;" vertex="1" parent="1">
          <mxGeometry x="-537" y="450" width="120" height="60" as="geometry" />
        </mxCell>
        <mxCell id="K97ao4fyFDPn6rMdFVWY-14" value="" style="edgeStyle=orthogonalEdgeStyle;rounded=0;orthogonalLoop=1;jettySize=auto;html=1;" edge="1" parent="1" source="K97ao4fyFDPn6rMdFVWY-10" target="K97ao4fyFDPn6rMdFVWY-11">
          <mxGeometry relative="1" as="geometry" />
        </mxCell>
        <mxCell id="K97ao4fyFDPn6rMdFVWY-10" value="客服服务" style="rounded=0;whiteSpace=wrap;html=1;fillColor=#d5e8d4;strokeColor=#82b366;" vertex="1" parent="1">
          <mxGeometry x="-363" y="450" width="120" height="60" as="geometry" />
        </mxCell>
        <mxCell id="K97ao4fyFDPn6rMdFVWY-11" value="运单服务" style="rounded=0;whiteSpace=wrap;html=1;fillColor=#ffe6cc;strokeColor=#d79b00;" vertex="1" parent="1">
          <mxGeometry x="-190" y="450" width="120" height="60" as="geometry" />
        </mxCell>
        <mxCell id="K97ao4fyFDPn6rMdFVWY-24" value="" style="shape=flexArrow;endArrow=classic;html=1;rounded=0;" edge="1" parent="1">
          <mxGeometry width="50" height="50" relative="1" as="geometry">
            <mxPoint x="-30" y="480" as="sourcePoint" />
            <mxPoint x="50" y="480" as="targetPoint" />
          </mxGeometry>
        </mxCell>
      </root>
    </mxGraphModel>
  </diagram>
</mxfile>
